<svg width="360" height="389" viewBox="0 0 360 389" fill="none" xmlns="http://www.w3.org/2000/svg">
<mask id="mask0" mask-type="alpha" maskUnits="userSpaceOnUse" x="0" y="0" width="360" height="389">
<rect width="360" height="389" fill="#F8C291" fill-opacity="0.2"/>
</mask>
<g mask="url(#mask0)">
<circle cx="342.5" cy="352.5" r="54.5" stroke="white" stroke-width="20"/>
<circle cx="2" cy="224" r="19" stroke="white" stroke-width="10"/>
<circle cx="39.5" cy="189.5" r="4.5" fill="white"/>
<circle cx="253" cy="292" r="10" fill="white"/>
<circle cx="23.5" cy="19.5" r="54.5" stroke="white" stroke-opacity="0.4" stroke-width="50"/>
<circle cx="179" cy="91" r="7" fill="white"/>
<path d="M95.0977 155.968C95.8194 155.551 96.5673 155.446 97.3414 155.654C98.1154 155.861 98.7108 156.326 99.1275 157.047C99.5442 157.769 99.6571 158.531 99.4664 159.334C99.259 160.108 98.7944 160.704 98.0727 161.12L92.6168 164.27L95.7418 169.683C96.1584 170.405 96.263 171.153 96.0556 171.927C95.8771 172.684 95.4125 173.28 94.662 173.713C93.9403 174.13 93.1924 174.234 92.4183 174.027C91.6442 173.819 91.0489 173.355 90.6322 172.633L87.5072 167.22L82.0512 170.37C81.3296 170.787 80.5817 170.892 79.8076 170.684C79.0168 170.448 78.4131 169.969 77.9965 169.247C77.5798 168.526 77.4752 167.778 77.6826 167.004C77.89 166.23 78.3546 165.634 79.0762 165.218L84.5322 162.068L81.3822 156.612C80.9655 155.89 80.8609 155.142 81.0683 154.368C81.2757 153.594 81.7403 152.999 82.462 152.582C83.1837 152.165 83.9316 152.061 84.7056 152.268C85.4797 152.475 86.0751 152.94 86.4918 153.662L89.6418 159.118L95.0977 155.968Z" fill="white"/>
<path d="M316.665 153.533C317.064 152.437 317.772 151.652 318.789 151.177C319.806 150.703 320.862 150.666 321.959 151.065C323.055 151.464 323.862 152.18 324.38 153.212C324.854 154.229 324.892 155.286 324.493 156.382L321.476 164.67L329.698 167.663C330.795 168.062 331.58 168.77 332.054 169.787C332.544 170.76 332.582 171.816 332.167 172.956C331.768 174.053 331.06 174.838 330.043 175.312C329.026 175.786 327.97 175.824 326.873 175.425L318.651 172.432L315.634 180.72C315.235 181.817 314.527 182.602 313.511 183.076C312.45 183.534 311.371 183.564 310.275 183.165C309.179 182.766 308.394 182.058 307.919 181.041C307.445 180.024 307.408 178.968 307.807 177.871L310.823 169.583L302.535 166.566C301.439 166.167 300.654 165.46 300.18 164.443C299.705 163.426 299.668 162.369 300.067 161.273C300.466 160.177 301.174 159.391 302.191 158.917C303.207 158.443 304.264 158.406 305.36 158.805L313.648 161.821L316.665 153.533Z" fill="white"/>
</g>
</svg>
