<svg width="30" height="27" viewBox="0 0 30 27" fill="none" xmlns="http://www.w3.org/2000/svg">
<path fill-rule="evenodd" clip-rule="evenodd" d="M10.8833 1.01131C11.0102 1.18378 11.111 1.38867 11.1797 1.61425C11.2484 1.83983 11.2838 2.08165 11.2838 2.32588C11.2838 2.5701 11.2484 2.81193 11.1797 3.0375C11.111 3.26308 11.0102 3.46797 10.8833 3.64045L3.66603 13.4663L10.8833 23.2922C11.01 23.4648 11.1106 23.6697 11.1792 23.8953C11.2478 24.1209 11.2831 24.3626 11.2831 24.6067C11.2831 24.8509 11.2478 25.0926 11.1792 25.3182C11.1106 25.5437 11.01 25.7487 10.8833 25.9213C10.7565 26.0939 10.6061 26.2309 10.4404 26.3243C10.2748 26.4177 10.0973 26.4658 9.91807 26.4658C9.73882 26.4658 9.56132 26.4177 9.39571 26.3243C9.2301 26.2309 9.07962 26.0939 8.95286 25.9213L0.773137 14.7809C0.646178 14.6084 0.545451 14.4035 0.476724 14.1779C0.407997 13.9524 0.37262 13.7105 0.37262 13.4663C0.37262 13.2221 0.407997 12.9803 0.476724 12.7547C0.545451 12.5291 0.646178 12.3242 0.773137 12.1517L8.95286 1.01131C9.0795 0.838394 9.22994 0.701207 9.39557 0.607604C9.5612 0.514 9.73875 0.46582 9.91807 0.46582C10.0974 0.46582 10.275 0.514 10.4406 0.607604C10.6062 0.701207 10.7566 0.838394 10.8833 1.01131V1.01131Z" fill="white"/>
<path fill-rule="evenodd" clip-rule="evenodd" d="M2 13.5C2 13.1022 2.12826 12.7206 2.35657 12.4393C2.58487 12.158 2.89452 12 3.21739 12H28.7826C29.1055 12 29.4151 12.158 29.6434 12.4393C29.8717 12.7206 30 13.1022 30 13.5C30 13.8978 29.8717 14.2794 29.6434 14.5607C29.4151 14.842 29.1055 15 28.7826 15H3.21739C2.89452 15 2.58487 14.842 2.35657 14.5607C2.12826 14.2794 2 13.8978 2 13.5Z" fill="white"/>
</svg>
