<svg width="360" height="620" viewBox="0 0 360 620" fill="none" xmlns="http://www.w3.org/2000/svg">
<g clip-path="url(#clip0)">
<rect width="360" height="620" fill="#F8F8F8"/>
<line x1="19" y1="374" x2="339" y2="374" stroke="#F7F7F7" stroke-width="2"/>
<path d="M38 8C38 24.9322 24.8833 38 9.5 38C-5.88331 38 -19 24.9322 -19 8C-19 -8.93223 -5.88331 -22 9.5 -22C24.8833 -22 38 -8.93223 38 8Z" stroke="#FF9E46" stroke-opacity="0.5" stroke-width="20"/>
<path d="M92 620C92 650.789 67.8642 675 39 675C10.1358 675 -14 650.789 -14 620C-14 589.211 10.1358 565 39 565C67.8642 565 92 589.211 92 620Z" stroke="#FF9E46" stroke-opacity="0.5" stroke-width="30"/>
<path d="M37 435C37 442.859 30.831 449 23.5 449C16.169 449 10 442.859 10 435C10 427.141 16.169 421 23.5 421C30.831 421 37 427.141 37 435Z" stroke="#FF9E46" stroke-opacity="0.5" stroke-width="10"/>
<circle cx="71" cy="40" r="8" fill="#FF9E46" fill-opacity="0.5"/>
<path d="M385.5 124.5C385.5 144.475 370.321 159.5 353 159.5C335.679 159.5 320.5 144.475 320.5 124.5C320.5 104.525 335.679 89.5 353 89.5C370.321 89.5 385.5 104.525 385.5 124.5Z" stroke="#FF9E46" stroke-opacity="0.5" stroke-width="25"/>
<circle cx="295.5" cy="194.5" r="7.5" fill="#FF9E46" fill-opacity="0.5"/>
<circle cx="143.5" cy="582.5" r="10.5" fill="#FF9E46" fill-opacity="0.5"/>
<path d="M310.326 49.1507C311.048 48.7341 311.796 48.6294 312.57 48.8368C313.344 49.0443 313.939 49.5088 314.356 50.2305C314.773 50.9522 314.886 51.7145 314.695 52.5175C314.487 53.2915 314.023 53.8869 313.301 54.3036L307.845 57.4536L310.97 62.8662C311.387 63.5879 311.491 64.3358 311.284 65.1099C311.105 65.8673 310.641 66.4627 309.89 66.896C309.169 67.3127 308.421 67.4173 307.647 67.2099C306.873 67.0025 306.277 66.5379 305.861 65.8162L302.736 60.4036L297.28 63.5536C296.558 63.9702 295.81 64.0749 295.036 63.8675C294.245 63.6312 293.642 63.1522 293.225 62.4305C292.808 61.7088 292.704 60.9609 292.911 60.1868C293.118 59.4128 293.583 58.8174 294.305 58.4007L299.761 55.2507L296.611 49.7948C296.194 49.0731 296.089 48.3252 296.297 47.5511C296.504 46.777 296.969 46.1817 297.69 45.765C298.412 45.3483 299.16 45.2437 299.934 45.4511C300.708 45.6585 301.303 46.1231 301.72 46.8448L304.87 52.3007L310.326 49.1507Z" fill="#FF9E46" fill-opacity="0.5"/>
<path d="M19.5193 97.382C18.7977 96.9654 18.0498 96.8607 17.2757 97.0681C16.5016 97.2756 15.9062 97.7401 15.4896 98.4618C15.0729 99.1835 14.9599 99.9458 15.1507 100.749C15.3581 101.523 15.8227 102.118 16.5443 102.535L22.0003 105.685L18.8753 111.098C18.4586 111.819 18.354 112.567 18.5614 113.341C18.74 114.099 19.2045 114.694 19.9551 115.127C20.6768 115.544 21.4247 115.649 22.1987 115.441C22.9728 115.234 23.5682 114.769 23.9849 114.048L27.1099 108.635L32.5658 111.785C33.2875 112.202 34.0354 112.306 34.8095 112.099C35.6002 111.862 36.2039 111.383 36.6206 110.662C37.0373 109.94 37.1419 109.192 36.9345 108.418C36.7271 107.644 36.2625 107.049 35.5408 106.632L30.0849 103.482L33.2349 98.0261C33.6515 97.3044 33.7561 96.5565 33.5487 95.7824C33.3413 95.0083 32.8768 94.413 32.1551 93.9963C31.4334 93.5796 30.6855 93.475 29.9114 93.6824C29.1373 93.8898 28.542 94.3544 28.1253 95.0761L24.9753 100.532L19.5193 97.382Z" fill="#FF9E46" fill-opacity="0.5"/>
<path d="M326.152 577.167C327.596 576.334 329.091 576.125 330.64 576.54C332.188 576.955 333.378 577.884 334.212 579.327C335.045 580.77 335.271 582.295 334.89 583.901C334.475 585.449 333.546 586.64 332.102 587.473L321.19 593.773L327.44 604.599C328.274 606.042 328.483 607.538 328.068 609.086C327.711 610.601 326.782 611.791 325.281 612.658C323.837 613.491 322.342 613.701 320.793 613.286C319.245 612.871 318.055 611.942 317.221 610.499L310.971 599.673L300.059 605.973C298.616 606.807 297.12 607.016 295.572 606.601C293.99 606.128 292.783 605.17 291.95 603.727C291.116 602.284 290.907 600.788 291.322 599.24C291.737 597.692 292.666 596.501 294.109 595.667L305.021 589.367L298.721 578.456C297.888 577.012 297.679 575.516 298.093 573.968C298.508 572.42 299.437 571.229 300.881 570.396C302.324 569.563 303.82 569.353 305.368 569.768C306.916 570.183 308.107 571.112 308.94 572.556L315.24 583.467L326.152 577.167Z" fill="#FF9E46" fill-opacity="0.5"/>
<circle cx="45.5" cy="467.5" r="6.5" fill="#FF9E46" fill-opacity="0.5"/>
<circle cx="311.5" cy="518.5" r="4.5" fill="#FF9E46" fill-opacity="0.5"/>
</g>
<defs>
<clipPath id="clip0">
<rect width="360" height="620" fill="white"/>
</clipPath>
</defs>
</svg>
