<svg width="1230" height="1099" viewBox="0 0 1230 1099" fill="none" xmlns="http://www.w3.org/2000/svg">
<circle cx="599" cy="225" r="102" stroke="#FF9E46" stroke-width="60"/>
<circle cx="795" cy="887" r="81" stroke="#FF9E46" stroke-width="50"/>
<circle cx="294.5" cy="973.5" r="45" stroke="#FF9E46" stroke-width="25"/>
<circle cx="832.5" cy="100.5" r="10.5" fill="#FF9E46"/>
<circle cx="1219.5" cy="113.5" r="10.5" fill="#FF9E46"/>
<circle cx="74.5" cy="185.5" r="10.5" fill="#FF9E46"/>
<circle cx="571.5" cy="912.5" r="10.5" fill="#FF9E46"/>
<circle cx="1219.5" cy="978.5" r="10.5" fill="#FF9E46"/>
<circle cx="147.5" cy="1030.5" r="18.5" fill="#FF9E46"/>
<circle cx="371" cy="175" r="23" fill="#FF9E46"/>
<circle cx="954.5" cy="1003.5" r="20.5" fill="#FF9E46"/>
<path d="M228.136 31.6311C230.33 30.3644 232.553 30.0817 234.806 30.7828C237.107 31.3017 238.891 32.6582 240.157 34.8521C241.424 37.0461 241.74 39.3269 241.106 41.6947C240.52 43.8803 239.13 45.6065 236.936 46.8731L209.916 62.4731L225.416 89.3199C226.683 91.5139 226.999 93.7947 226.365 96.1625C225.846 98.4636 224.489 100.247 222.295 101.514C220.101 102.781 217.821 103.097 215.453 102.462C213.2 101.761 211.441 100.314 210.174 98.1199L194.674 71.2731L167.654 86.8731C165.46 88.1398 163.213 88.5137 160.912 87.9947C158.659 87.2936 156.9 85.8461 155.633 83.6521C154.367 81.4582 154.026 79.2684 154.612 77.0828C155.246 74.715 156.66 72.8978 158.854 71.6311L185.874 56.0311L170.274 29.0111C169.008 26.8172 168.667 24.6274 169.253 22.4417C169.887 20.074 171.301 18.2567 173.495 16.9901C175.689 15.7234 177.912 15.4406 180.165 16.1417C182.466 16.6607 184.25 18.0172 185.516 20.2111L201.116 47.2311L228.136 31.6311Z" fill="#FF9E46"/>
<path d="M29.7867 887.631C27.5928 886.364 25.3697 886.082 23.1174 886.783C20.8163 887.302 19.0324 888.658 17.7657 890.852C16.499 893.046 16.1829 895.327 16.8174 897.695C17.403 899.88 18.7928 901.606 20.9867 902.873L48.0067 918.473L32.5067 945.32C31.2401 947.514 30.9239 949.795 31.5584 952.162C32.0774 954.464 33.4338 956.247 35.6277 957.514C37.8217 958.781 40.1025 959.097 42.4703 958.462C44.7226 957.761 46.4821 956.314 47.7488 954.12L63.2488 927.273L90.2688 942.873C92.4627 944.14 94.7102 944.514 97.0113 943.995C99.2636 943.294 101.023 941.846 102.29 939.652C103.556 937.458 103.897 935.268 103.311 933.083C102.677 930.715 101.263 928.898 99.0688 927.631L72.0488 912.031L87.6488 885.011C88.9154 882.817 89.2559 880.627 88.6703 878.442C88.0359 876.074 86.6217 874.257 84.4277 872.99C82.2338 871.723 80.0107 871.441 77.7584 872.142C75.4573 872.661 73.6734 874.017 72.4067 876.211L56.8067 903.231L29.7867 887.631Z" fill="#FF9E46"/>
<path d="M1093.82 55.6604C1094.92 56.2937 1095.59 57.1857 1095.85 58.3362C1096.2 59.4624 1096.06 60.5739 1095.43 61.6709C1094.8 62.7679 1093.89 63.475 1092.7 63.7922C1091.61 64.085 1090.52 63.9148 1089.42 63.2814L1075.91 55.4814L1068.16 68.9048C1067.52 70.0018 1066.62 70.7089 1065.43 71.0261C1064.31 71.3767 1063.19 71.2353 1062.1 70.6019C1061 69.9686 1060.29 69.06 1059.98 67.8761C1059.72 66.7255 1059.9 65.6018 1060.54 64.5048L1068.29 51.0814L1054.78 43.2814C1053.68 42.6481 1052.96 41.7683 1052.61 40.6422C1052.35 39.4916 1052.53 38.3679 1053.17 37.2709C1053.8 36.1739 1054.66 35.4791 1055.76 35.1862C1056.94 34.869 1058.08 35.0271 1059.18 35.6604L1072.69 43.4604L1080.49 29.9504C1081.12 28.8534 1081.98 28.1585 1083.08 27.8657C1084.26 27.5485 1085.4 27.7066 1086.5 28.3399C1087.59 28.9732 1088.27 29.8652 1088.53 31.0157C1088.88 32.1419 1088.74 33.2534 1088.11 34.3504L1080.31 47.8604L1093.82 55.6604Z" fill="#FF9E46"/>
<path d="M1170.82 896.66C1171.92 897.294 1172.59 898.186 1172.85 899.336C1173.2 900.462 1173.06 901.574 1172.43 902.671C1171.8 903.768 1170.89 904.475 1169.7 904.792C1168.61 905.085 1167.52 904.915 1166.42 904.281L1152.91 896.481L1145.16 909.905C1144.52 911.002 1143.62 911.709 1142.43 912.026C1141.31 912.377 1140.19 912.235 1139.1 911.602C1138 910.969 1137.29 910.06 1136.98 908.876C1136.72 907.726 1136.9 906.602 1137.54 905.505L1145.29 892.081L1131.78 884.281C1130.68 883.648 1129.96 882.768 1129.61 881.642C1129.35 880.492 1129.53 879.368 1130.17 878.271C1130.8 877.174 1131.66 876.479 1132.76 876.186C1133.94 875.869 1135.08 876.027 1136.18 876.66L1149.69 884.46L1157.49 870.95C1158.12 869.853 1158.98 869.159 1160.08 868.866C1161.26 868.549 1162.4 868.707 1163.5 869.34C1164.59 869.973 1165.27 870.865 1165.53 872.016C1165.88 873.142 1165.74 874.253 1165.11 875.35L1157.31 888.86L1170.82 896.66Z" fill="#FF9E46"/>
<path d="M430.17 894.624C429.347 895.099 428.838 895.768 428.644 896.631C428.381 897.476 428.487 898.31 428.962 899.132C429.437 899.955 430.118 900.485 431.006 900.723C431.826 900.943 432.647 900.815 433.47 900.34L443.602 894.49L449.415 904.558C449.89 905.381 450.571 905.911 451.459 906.149C452.304 906.412 453.137 906.306 453.96 905.831C454.783 905.356 455.313 904.674 455.551 903.786C455.746 902.923 455.605 902.081 455.13 901.258L449.318 891.19L459.45 885.34C460.273 884.865 460.816 884.205 461.079 883.361C461.274 882.498 461.133 881.655 460.658 880.832C460.183 880.01 459.536 879.488 458.716 879.269C457.828 879.031 456.973 879.149 456.15 879.624L446.018 885.474L440.168 875.342C439.693 874.519 439.046 873.998 438.226 873.778C437.338 873.541 436.483 873.659 435.66 874.134C434.837 874.609 434.329 875.278 434.134 876.141C433.871 876.986 433.977 877.819 434.452 878.642L440.302 888.774L430.17 894.624Z" fill="#FF9E46"/>
<path d="M238.108 182.624C237.285 183.099 236.776 183.768 236.582 184.631C236.319 185.476 236.425 186.31 236.9 187.132C237.375 187.955 238.056 188.485 238.944 188.723C239.764 188.943 240.585 188.815 241.408 188.34L251.54 182.49L257.353 192.558C257.828 193.381 258.509 193.911 259.397 194.149C260.242 194.412 261.075 194.306 261.898 193.831C262.721 193.356 263.251 192.674 263.489 191.786C263.684 190.923 263.543 190.081 263.068 189.258L257.256 179.19L267.388 173.34C268.211 172.865 268.754 172.205 269.017 171.361C269.211 170.498 269.071 169.655 268.596 168.832C268.121 168.01 267.474 167.488 266.654 167.269C265.766 167.031 264.911 167.149 264.088 167.624L253.956 173.474L248.106 163.342C247.631 162.519 246.984 161.998 246.164 161.778C245.276 161.541 244.421 161.659 243.598 162.134C242.775 162.609 242.267 163.278 242.072 164.141C241.809 164.986 241.915 165.819 242.39 166.642L248.24 176.774L238.108 182.624Z" fill="#FF9E46"/>
<path d="M980.864 182.624C981.686 183.099 982.195 183.768 982.39 184.631C982.653 185.476 982.547 186.31 982.072 187.132C981.597 187.955 980.915 188.485 980.027 188.723C979.208 188.943 978.386 188.815 977.564 188.34L967.431 182.49L961.619 192.558C961.144 193.381 960.462 193.911 959.574 194.149C958.73 194.412 957.896 194.306 957.073 193.831C956.251 193.356 955.72 192.674 955.482 191.786C955.288 190.923 955.428 190.081 955.903 189.258L961.715 179.19L951.583 173.34C950.76 172.865 950.217 172.205 949.954 171.361C949.76 170.498 949.9 169.655 950.375 168.832C950.85 168.01 951.497 167.488 952.317 167.269C953.205 167.031 954.06 167.149 954.883 167.624L965.015 173.474L970.865 163.342C971.34 162.519 971.988 161.998 972.807 161.778C973.695 161.541 974.551 161.659 975.373 162.134C976.196 162.609 976.705 163.278 976.899 164.141C977.162 164.986 977.056 165.819 976.581 166.642L970.731 176.774L980.864 182.624Z" fill="#FF9E46"/>
<circle cx="664" cy="1074" r="25" fill="#FF9E46"/>
</svg>
