<svg width="60" height="60" viewBox="0 0 60 60" fill="none" xmlns="http://www.w3.org/2000/svg">
<path fill-rule="evenodd" clip-rule="evenodd" d="M30 0C46.5685 0 60 13.4315 60 30C60 46.5685 46.5685 60 30 60C13.4315 60 0 46.5685 0 30C0 13.4315 13.4315 0 30 0ZM41.4645 16.4645L25 32.9289L18.5355 26.4645C16.5829 24.5118 13.4171 24.5118 11.4645 26.4645C9.51185 28.4171 9.51185 31.5829 11.4645 33.5355L21.4645 43.5355C23.4171 45.4882 26.5829 45.4882 28.5355 43.5355L48.5355 23.5355C50.4882 21.5829 50.4882 18.4171 48.5355 16.4645C46.5829 14.5118 43.4171 14.5118 41.4645 16.4645Z" fill="#FF9E46"/>
</svg>
