<svg width="676" height="535" viewBox="0 0 676 535" fill="none" xmlns="http://www.w3.org/2000/svg">
<path d="M535.749 132.318C536.884 129.184 538.903 126.938 541.806 125.578C544.709 124.219 547.728 124.107 550.862 125.242C553.996 126.377 556.305 128.419 557.79 131.368C559.149 134.271 559.261 137.289 558.126 140.423L549.544 164.117L573.05 172.631C576.184 173.766 578.431 175.785 579.79 178.688C581.195 181.466 581.307 184.484 580.126 187.744C578.991 190.878 576.972 193.125 574.069 194.484C571.166 195.843 568.147 195.955 565.013 194.82L541.507 186.306L532.926 210C531.791 213.134 529.771 215.381 526.868 216.74C523.84 218.054 520.759 218.144 517.625 217.008C514.49 215.873 512.244 213.854 510.884 210.951C509.525 208.048 509.413 205.029 510.548 201.895L519.13 178.201L495.436 169.62C492.302 168.485 490.055 166.465 488.696 163.562C487.337 160.659 487.225 157.641 488.36 154.507C489.495 151.373 491.514 149.126 494.417 147.767C497.32 146.407 500.339 146.295 503.473 147.43L527.167 156.012L535.749 132.318Z" fill="#FF9E46"/>
<path d="M416.418 249C416.418 331.91 349.417 399 266.918 399C184.419 399 117.418 331.91 117.418 249C117.418 166.09 184.419 99 266.918 99C349.417 99 416.418 166.09 416.418 249Z" stroke="#FB9D44" stroke-width="50"/>
<path d="M442.394 295.201C442.394 295.201 443.543 299.038 437.029 302.492C430.515 305.945 428.599 318.992 436.263 322.829C443.926 326.666 446.225 331.655 442.394 335.108C438.562 338.562 431.664 347.772 440.861 350.074C450.057 352.376 451.207 356.981 448.525 358.9C445.842 360.818 454.656 355.446 454.656 355.446C454.656 355.446 456.188 364.655 464.235 362.353C472.282 360.051 494.89 316.306 483.394 310.166C471.899 304.027 442.394 295.201 442.394 295.201Z" fill="#2F2E41"/>
<path d="M456.282 332.254C456.282 332.254 460.257 346.185 453.301 347.18C448.984 347.854 444.894 349.561 441.377 352.156L454.295 369.072H478.143L493.049 354.146C493.049 354.146 473.175 339.219 477.15 330.263C481.125 321.307 456.282 332.254 456.282 332.254Z" fill="#FFB9B9"/>
<path opacity="0.1" d="M456.282 332.254C456.282 332.254 460.257 346.185 453.301 347.18C448.984 347.854 444.894 349.561 441.377 352.156L454.295 369.072H478.143L493.049 354.146C493.049 354.146 473.175 339.219 477.15 330.263C481.125 321.307 456.282 332.254 456.282 332.254Z" fill="black"/>
<path d="M462.244 505.402L485.1 513.362L500.998 514.357L500.005 500.426L467.213 490.714L462.244 505.402Z" fill="#FFB9B9"/>
<path d="M491.558 502.416C491.558 502.416 491.558 516.348 493.546 516.348C495.533 516.348 522.363 513.362 530.313 516.348C538.262 519.333 550.186 508.387 544.224 502.416C538.262 496.446 528.537 487.49 522.469 489.48C516.401 491.47 491.558 496.446 491.558 496.446V502.416Z" fill="#575A89"/>
<path d="M418.522 489.48C418.522 489.48 406.597 513.362 414.547 515.353C422.496 517.343 431.44 514.358 432.433 513.362C433.427 512.367 447.339 508.387 449.326 510.377C451.314 512.367 451.314 502.416 451.314 502.416L418.522 489.48Z" fill="#575A89"/>
<path d="M428.459 456.642C428.459 456.642 409.578 482.514 423.49 489.48C437.402 496.446 503.98 496.446 508.948 489.48C513.917 482.514 515.904 460.622 508.948 458.632C501.992 456.642 428.459 456.642 428.459 456.642Z" fill="#2F2E41"/>
<path opacity="0.2" d="M428.459 456.642C428.459 456.642 409.578 482.514 423.49 489.48C437.402 496.446 503.98 496.446 508.948 489.48C513.917 482.514 515.904 460.622 508.948 458.632C501.992 456.642 428.459 456.642 428.459 456.642Z" fill="black"/>
<path d="M464.232 339.219C476.854 339.219 487.087 328.972 487.087 316.332C487.087 303.692 476.854 293.445 464.232 293.445C451.609 293.445 441.377 303.692 441.377 316.332C441.377 328.972 451.609 339.219 464.232 339.219Z" fill="#FFB9B9"/>
<path d="M428.459 352.156L448.333 348.175C448.333 348.175 453.301 364.097 469.2 361.112C485.099 358.126 489.074 348.175 489.074 348.175C489.074 348.175 500.998 353.151 501.992 353.151C502.986 353.151 515.904 358.126 515.904 361.112C515.904 364.097 500.998 393.95 500.998 393.95L502.986 447.686L429.452 445.695L434.421 392.955L428.459 352.156Z" fill="#FF9E46"/>
<path d="M417.528 378.028C417.528 378.028 411.566 430.769 415.541 434.749C419.515 438.73 435.415 449.676 435.415 449.676V437.735L427.465 422.808L435.415 387.979L417.528 378.028Z" fill="#FFB9B9"/>
<path d="M520.375 376.536C520.375 376.536 516.898 430.769 516.898 432.759C516.898 434.749 507.954 441.715 504.973 441.715C501.992 441.715 500.005 436.739 500.005 436.739L506.961 428.779L501.992 387.979L520.375 376.536Z" fill="#FFB9B9"/>
<path d="M510.935 452.661C510.935 452.661 555.652 427.784 556.645 452.661C557.639 477.539 533.79 487.49 533.79 487.49C533.79 487.49 472.181 505.99 469.697 499.228C467.213 492.465 462.244 481.519 466.219 480.524C470.194 479.529 475.162 477.539 477.15 479.529C479.137 481.519 503.98 464.602 503.98 464.602L510.935 452.661Z" fill="#2F2E41"/>
<path opacity="0.2" d="M531.803 449.676C531.803 449.676 522.86 453.656 519.879 456.641C516.898 459.627 503.98 464.602 503.98 464.602" stroke="black" stroke-width="2" stroke-miterlimit="10"/>
<path d="M434.421 354.146L428.459 352.156C428.459 352.156 406.597 375.043 413.553 381.014C420.509 386.984 424.484 388.974 426.471 390.965C428.459 392.955 438.396 393.95 438.396 393.95L434.421 354.146Z" fill="#FF9E46"/>
<path d="M506.961 359.121L515.904 361.112C515.904 361.112 522.86 376.038 524.847 378.028C526.835 380.019 521.866 379.023 518.885 383.004C515.904 386.984 512.923 393.95 506.961 393.95C500.998 393.95 493.049 383.999 493.049 383.999L506.961 359.121Z" fill="#FF9E46"/>
<path d="M430.446 461.617C430.446 461.617 392.686 434.749 379.768 454.651C366.849 474.553 435.415 501.421 445.351 505.402C455.288 509.382 464.232 513.362 464.232 513.362C464.232 513.362 473.175 491.47 473.175 487.49C473.175 483.509 466.219 483.509 464.232 483.509C462.244 483.509 453.301 481.519 451.314 478.534C449.326 475.549 430.446 461.617 430.446 461.617Z" fill="#2F2E41"/>
<path opacity="0.2" d="M409.578 454.651C409.578 454.651 419.515 462.612 428.459 464.602C437.402 466.593 440.383 471.568 440.383 471.568" stroke="black" stroke-width="2" stroke-miterlimit="10"/>
<path d="M423.591 417.236L424.385 459.369C424.411 460.761 424.986 462.085 425.983 463.055C426.981 464.024 428.321 464.559 429.71 464.544L508.007 463.663C509.341 463.648 510.62 463.126 511.585 462.204C512.55 461.281 513.129 460.026 513.206 458.692L515.583 417.44C515.624 416.723 515.519 416.005 515.273 415.33C515.027 414.656 514.647 414.038 514.154 413.516C513.662 412.993 513.068 412.577 512.41 412.293C511.751 412.009 511.042 411.862 510.324 411.862H428.857C428.157 411.862 427.464 412.002 426.819 412.273C426.173 412.544 425.588 412.942 425.098 413.442C424.608 413.942 424.222 414.536 423.963 415.187C423.705 415.838 423.578 416.535 423.591 417.236Z" fill="#575A89"/>
<path d="M465.453 287.581C465.453 287.581 466.726 291.832 459.51 295.658C452.294 299.484 450.171 313.937 458.661 318.188C467.151 322.439 469.698 327.965 465.453 331.791C461.208 335.617 453.567 345.819 463.755 348.369C473.943 350.92 475.216 356.021 472.245 358.146C469.273 360.272 479.037 354.321 479.037 354.321C479.037 354.321 480.735 364.523 489.649 361.972C498.563 359.422 507.458 313.058 497.521 301.117C488.281 290.014 465.453 287.581 465.453 287.581Z" fill="#2F2E41"/>
<path d="M462.741 283.205C462.743 276.978 481.349 281.453 489.326 290.148C494.85 296.169 503.241 305.229 496.21 311.614C489.179 318 508.261 326.371 513.379 328.909C518.497 331.447 528.602 339.209 519.478 344.416C510.354 349.622 510.501 354.878 513.935 356.123C517.368 357.367 506.364 354.273 506.364 354.273C506.364 354.273 507.476 364.555 498.205 364.506C488.934 364.457 462.337 313.434 468.691 299.252C474.599 286.066 462.741 283.205 462.741 283.205Z" fill="#2F2E41"/>
<path d="M466.771 281.841C441.89 280.34 439.393 299.096 439.393 299.096C439.565 309.949 456.777 304.661 461.558 306.279C467.325 302.124 478.442 294.263 486.392 288.653C480.62 284.583 473.821 282.222 466.771 281.841Z" fill="#2F2E41"/>
<path d="M459.418 402C459.418 402 439.581 308.689 315.418 241" stroke="#3F3D56" stroke-width="2" stroke-miterlimit="10"/>
<path d="M320.184 239L320.418 239.954L315.684 241.094L317.175 245.7L316.234 246L314.418 240.39L320.184 239Z" fill="#3F3D56"/>
<path d="M83.6958 505.113L87.4587 502.314C87.4587 502.314 89.9495 516.247 87.1701 518.334C84.3906 520.422 73.9679 523.901 73.9679 528.076C73.9679 532.251 50.3429 537.818 49.648 531.555C48.9532 525.293 51.7326 521.814 51.7326 521.814C51.7326 521.814 62.8502 510.68 64.2399 508.593C65.6296 506.505 69.1039 502.33 69.1039 502.33L83.6958 505.113Z" fill="#2F2E41"/>
<path d="M28.1077 331.85C28.1077 331.85 28.2119 332.462 28.3925 333.583C28.5594 334.578 28.7886 335.983 29.0666 337.716C31.985 355.55 40.4969 408.051 39.9202 409.784C39.2253 411.871 34.3613 419.526 39.9202 421.613C40.4552 421.815 41.0319 422.469 41.6503 423.499C42.844 425.717 43.828 428.042 44.5895 430.443C47.904 440.074 51.4478 455.486 53.4976 466.16C54.394 470.85 55.0054 474.622 55.186 476.598C55.2488 477.055 55.2559 477.517 55.2069 477.976C54.5121 480.759 59.376 490.501 61.4606 493.284C63.5451 496.068 67.0194 498.851 66.3245 501.634C65.6297 504.418 83.6959 512.072 85.7804 507.201C87.865 502.33 87.865 499.547 88.5598 498.155C89.2547 496.763 89.9495 487.022 86.4753 485.63C83.001 484.238 85.0855 459.884 81.6113 455.013C80.4509 453.392 78.679 447.902 76.8237 441.298C76.0942 438.71 75.3576 435.954 74.635 433.192C71.7027 421.871 69.104 410.48 69.104 410.48L69.7988 329.067L31.5819 324.196L30.6022 326.36L28.6497 330.653L28.1077 331.85Z" fill="#2F2E41"/>
<path d="M26.0231 465.451C26.0231 465.451 20.4643 459.884 17.6849 465.451C14.9055 471.017 12.1261 492.588 7.26213 497.459C2.39816 502.33 -3.8555 526.684 3.09302 528.076C10.0415 529.468 17.6849 525.989 18.3798 521.814C19.0746 517.639 33.6665 496.068 33.6665 493.98C33.6665 491.893 23.9385 484.238 23.9385 484.238L26.0231 465.451Z" fill="#2F2E41"/>
<path d="M111.49 293.579C111.49 293.579 102.457 374.992 100.372 382.646C98.2877 390.3 87.1701 419.526 83.6958 424.396C80.2216 429.267 57.9863 468.93 55.2069 471.017C52.4275 473.105 46.8686 478.672 46.8686 478.672C46.8686 478.672 36.4459 489.109 35.0562 491.197C33.6665 493.284 21.854 487.022 21.1591 482.847C20.4643 478.672 21.854 471.713 22.5488 468.93C23.2437 466.147 21.1591 461.972 23.2437 459.884C25.3282 457.797 35.751 447.359 35.751 442.488C35.751 437.617 53.8172 409.088 60.7657 402.825C67.7142 396.563 66.3245 386.125 66.3245 386.125V343.679L28.1076 331.85C28.1076 331.85 30.1922 298.45 35.0562 298.45C39.9201 298.45 103.847 287.317 111.49 293.579Z" fill="#2F2E41"/>
<path d="M55.2069 177.374C67.8708 177.374 78.137 167.094 78.137 154.412C78.137 141.73 67.8708 131.449 55.2069 131.449C42.5429 131.449 32.2767 141.73 32.2767 154.412C32.2767 167.094 42.5429 177.374 55.2069 177.374Z" fill="#9F616A"/>
<path d="M62.8502 172.504C62.8502 172.504 65.6297 182.941 69.1039 185.724C72.5782 188.508 60.0708 200.337 60.0708 200.337L36.4459 201.729L32.2767 188.508C32.2767 188.508 39.9201 173.199 37.8356 163.458C35.751 153.716 62.8502 172.504 62.8502 172.504Z" fill="#9F616A"/>
<path d="M72.5782 184.333C72.5782 184.333 66.3245 185.029 64.9348 187.116C63.5451 189.204 53.8172 195.466 46.1738 194.075C38.5304 192.683 33.6665 190.595 32.2768 191.291C30.8871 191.987 28.1077 206.6 28.1077 206.6L35.751 228.866L34.3613 290.1L32.2768 306.8C32.2768 306.8 28.1077 301.233 44.7841 304.713C61.4606 308.192 83.001 301.929 89.9495 301.233C96.8981 300.538 108.711 298.45 109.405 294.275C110.1 290.1 107.321 274.792 107.321 274.792L96.2032 228.171L89.2547 203.12L72.5782 184.333Z" fill="#FF9E46"/>
<path d="M66.0056 181.192C66.0056 181.192 71.8833 178.07 73.9679 180.854C76.0524 183.637 102.457 187.812 102.457 189.899C102.457 191.987 108.016 248.35 106.626 253.221C105.236 258.092 109.405 263.658 109.405 263.658L114.269 284.533C114.269 284.533 127.472 324.196 121.913 325.588C116.354 326.979 111.49 325.588 109.405 325.588C107.321 325.588 108.016 299.146 102.457 292.187C96.898 285.229 89.2546 267.833 87.8649 264.354C86.4752 260.875 69.1039 212.862 69.7987 207.295C70.4936 201.729 66.0056 181.192 66.0056 181.192Z" fill="#D0CDE1"/>
<path d="M37.1406 184.333C37.1406 184.333 31.5818 184.333 30.8869 185.725C30.1921 187.116 23.2435 196.162 20.4641 198.25C17.6847 200.337 7.95679 209.383 7.95679 211.47C7.95679 213.558 28.1075 228.866 28.1075 228.866C28.1075 228.866 36.4457 269.921 32.2766 283.837C28.1075 297.754 21.8538 331.154 24.6332 333.242C27.4127 335.329 33.6663 336.025 33.6663 333.242C33.6663 330.459 37.8354 300.538 41.3097 294.275C44.784 288.012 55.2068 248.35 51.0376 237.216C46.8685 226.083 37.1406 184.333 37.1406 184.333Z" fill="#D0CDE1"/>
<path d="M128.861 253.221C128.861 253.221 129.556 274.792 121.913 285.925C114.269 297.058 109.405 309.583 109.405 309.583C109.405 309.583 96.8979 306.104 94.8134 301.929C92.7288 297.754 79.5266 301.233 79.5266 299.842C79.5266 298.45 95.5082 291.492 96.8979 290.1C98.2876 288.708 103.152 288.708 105.931 285.925C108.71 283.142 109.405 276.879 109.405 276.879L112.185 258.787L128.861 253.221Z" fill="#9F616A"/>
<path d="M70.9999 140.254C72.7639 140.093 74.5833 139.917 76.1423 139.075C79.6356 137.188 80.5619 131.815 77.9026 128.865C77.1694 128.114 76.3493 127.454 75.4598 126.898L70.178 123.298C67.8419 121.706 65.4507 120.087 62.7261 119.337C60.2618 118.658 57.6591 118.727 55.1082 118.886C50.1561 119.194 45.1734 119.831 40.5157 121.543C35.858 123.255 31.5132 126.12 28.6922 130.207C24.2202 136.687 24.1587 145.426 26.6218 152.907C29.0849 160.388 33.7636 166.902 38.3737 173.284L40.7658 161.596C40.9788 160.555 41.2544 159.414 42.119 158.798C44.2679 157.266 46.8965 160.41 49.5339 160.39C51.2285 160.377 52.6513 158.981 53.2935 157.411C53.9357 155.84 53.978 154.101 54.1266 152.41C54.4413 148.83 55.6911 143.848 59.0772 141.873C62.2326 140.033 67.4532 140.576 70.9999 140.254Z" fill="#2F2E41"/>
<path opacity="0.1" d="M69.7136 332.412C69.7136 332.412 67.3667 400.39 65.977 402.478C64.5873 404.565 65.977 332.198 65.977 332.198L69.7136 332.412Z" fill="black"/>
<path d="M96.8979 189.899H102.457C102.457 189.899 126.082 221.908 123.302 223.995C120.523 226.083 123.302 231.65 123.302 231.65L128.861 242.087C128.861 242.087 135.81 248.35 133.725 249.741C131.641 251.133 128.861 256.7 128.861 256.7C128.861 256.7 114.964 254.612 110.795 262.962L101.783 251.569L96.8979 189.899Z" fill="#D0CDE1"/>
<path d="M98.8627 200.195L79.7881 208.083L94.4667 243.679L113.541 235.792L98.8627 200.195Z" fill="#2F2E41"/>
<path d="M96.627 221.073C98.7339 220.201 99.794 217.924 98.9947 215.985C98.1955 214.047 95.8396 213.182 93.7326 214.054C91.6257 214.925 90.5657 217.202 91.3649 219.141C92.1642 221.079 94.5201 221.944 96.627 221.073Z" fill="#FF9E46"/>
<path d="M83.001 245.566C83.001 245.566 32.9716 287.317 24.6334 274.096C16.2951 260.875 33.6665 249.741 33.6665 249.741C33.6665 249.741 48.9532 250.437 66.3245 239.304L83.6958 231.65C83.6958 231.65 99.5545 208.977 104.959 217.61C110.363 226.244 95.7338 241.27 83.001 245.566Z" fill="#9F616A"/>
<path d="M15.6003 208.687L7.9569 211.47V232.346L5.17749 236.521C5.17749 236.521 5.87234 244.871 7.9569 246.958C10.0415 249.046 14.2106 248.35 12.8209 253.221C11.9856 256.396 11.75 259.7 12.126 262.962C12.126 262.962 24.6334 278.967 25.3282 276.879C26.0231 274.792 35.751 249.046 37.1407 249.046C38.5304 249.046 23.2437 208.687 23.2437 208.687H15.6003Z" fill="#D0CDE1"/>
<path d="M106.973 314.106C106.973 314.106 114.158 307.148 110.566 306.8C106.973 306.452 94.4661 299.494 92.3815 302.973C90.2969 306.452 106.973 314.106 106.973 314.106Z" fill="#2F2E41"/>
<path d="M262.036 214.115C267.392 215.515 272.336 214.349 273.078 211.509C273.821 208.67 270.081 205.232 264.725 203.832C259.369 202.432 254.425 203.598 253.683 206.438C252.94 209.277 256.68 212.714 262.036 214.115Z" fill="#57B894"/>
<path d="M295.979 235.806C276.274 221.818 254.407 216.101 230.377 218.654L237.397 191.804C260.478 190.933 283.298 196.9 302.999 208.957L295.979 235.806Z" stroke="#3F3D56" stroke-width="2" stroke-miterlimit="10"/>
<path d="M288.303 227.867C274.082 217.771 258.299 213.645 240.956 215.487L246.023 196.109C262.681 195.481 279.151 199.787 293.37 208.489L288.303 227.867Z" stroke="#3F3D56" stroke-width="2" stroke-miterlimit="10"/>
<path d="M266.056 212.725C271.412 214.125 276.356 212.958 277.098 210.119C277.841 207.279 274.101 203.842 268.745 202.442C263.389 201.042 258.445 202.208 257.703 205.048C256.961 207.887 260.7 211.324 266.056 212.725Z" stroke="#3F3D56" stroke-width="2" stroke-miterlimit="10"/>
<path d="M236.37 251.211C241.794 250.103 245.716 246.873 245.13 243.997C244.544 241.121 239.671 239.689 234.247 240.798C228.823 241.906 224.901 245.136 225.487 248.012C226.073 250.887 230.946 252.32 236.37 251.211Z" fill="#57B894"/>
<path d="M276.397 255.685C252.545 251.836 230.399 256.362 209.96 269.264L204.418 242.073C224.747 231.099 247.858 226.376 270.856 228.494L276.397 255.685Z" stroke="#3F3D56" stroke-width="2" stroke-miterlimit="10"/>
<path d="M266.008 251.951C248.792 249.173 232.809 252.44 218.057 261.752L214.058 242.127C228.73 234.206 245.41 230.797 262.008 232.326L266.008 251.951Z" stroke="#3F3D56" stroke-width="2" stroke-miterlimit="10"/>
<path d="M239.364 248.189C244.788 247.08 248.71 243.85 248.124 240.974C247.538 238.099 242.666 236.666 237.242 237.775C231.818 238.884 227.896 242.113 228.482 244.989C229.068 247.865 233.94 249.297 239.364 248.189Z" stroke="#3F3D56" stroke-width="2" stroke-miterlimit="10"/>
<path d="M272.129 280.164C272.333 277.236 268.021 274.55 262.498 274.165C256.976 273.781 252.334 275.842 252.13 278.77C251.927 281.698 256.239 284.383 261.762 284.768C267.284 285.153 271.926 283.091 272.129 280.164Z" fill="#57B894"/>
<path d="M296.092 304.561C275.913 291.263 253.861 286.305 229.936 289.688L236.017 262.611C259.053 260.942 282.066 266.116 302.174 277.484L296.092 304.561Z" stroke="#3F3D56" stroke-width="2" stroke-miterlimit="10"/>
<path d="M288.145 296.892C273.582 287.294 257.666 283.716 240.398 286.158L244.787 266.615C261.413 265.411 278.022 269.145 292.535 277.35L288.145 296.892Z" stroke="#3F3D56" stroke-width="2" stroke-miterlimit="10"/>
<path d="M275.822 278.053C276.026 275.126 271.714 272.44 266.191 272.055C260.669 271.67 256.027 273.732 255.823 276.66C255.62 279.588 259.932 282.273 265.455 282.658C270.977 283.043 275.619 280.981 275.822 278.053Z" stroke="#3F3D56" stroke-width="2" stroke-miterlimit="10"/>
<path d="M204.43 205.545C204.43 205.545 164.636 187.39 129.772 195.88" stroke="#3F3D56" stroke-width="2" stroke-miterlimit="10"/>
<path d="M132.526 190.334L133.502 191L130.22 195.809L135.248 198.731L134.654 199.753L128.531 196.192L132.526 190.334Z" fill="#3F3D56"/>
<circle cx="108.918" cy="98.5" r="27.5" fill="#FF9E46"/>
</svg>
