<svg width="1440" height="605" viewBox="0 0 1440 605" fill="none" xmlns="http://www.w3.org/2000/svg">
<mask id="mask0" mask-type="alpha" maskUnits="userSpaceOnUse" x="0" y="0" width="1440" height="605">
<path d="M0 40C0 17.9086 17.9086 0 40 0H1400C1422.09 0 1440 17.9086 1440 40V565C1440 587.091 1422.09 605 1400 605H40C17.9086 605 0 587.091 0 565V40Z" fill="#FF9E46" fill-opacity="0.2"/>
</mask>
<g mask="url(#mask0)">
<path d="M1196.98 45.9362C1199.64 44.6966 1202.3 44.5604 1204.96 45.5278C1207.56 46.3743 1209.48 48.1268 1210.72 50.7854C1211.96 53.4439 1212.09 56.102 1211.13 58.7599C1210.16 61.4177 1208.35 63.3665 1205.69 64.6062L1180.31 76.4395L1192.23 101.997C1193.47 104.656 1193.6 107.314 1192.64 109.972C1191.61 112.509 1189.77 114.397 1187.11 115.637C1184.45 116.877 1181.82 117.073 1179.22 116.227C1176.56 115.259 1174.62 113.446 1173.38 110.788L1161.46 85.23L1136.08 97.0633C1133.42 98.3029 1130.77 98.4391 1128.11 97.4717C1125.45 96.5043 1123.5 94.6914 1122.26 92.0329C1121.02 89.3744 1120.91 86.7766 1121.94 84.2396C1122.9 81.5818 1124.72 79.633 1127.38 78.3933L1152.75 66.56L1140.83 41.0021C1139.6 38.3436 1139.46 35.6854 1140.43 33.0276C1141.39 30.3697 1143.21 28.421 1145.87 27.1813C1148.52 25.9416 1151.18 25.8055 1153.84 26.7728C1156.5 27.7402 1158.45 29.5532 1159.69 32.2117L1171.6 57.7695L1196.98 45.9362Z" fill="white"/>
<path d="M198.648 236.365C198.674 237.832 198.195 239.074 197.213 240.091C196.297 241.107 195.106 241.628 193.64 241.654C192.173 241.679 190.931 241.201 189.914 240.218C188.897 239.236 188.375 238.012 188.35 236.545L188.105 222.547L174.008 222.793C172.541 222.819 171.299 222.34 170.282 221.358C169.331 220.375 168.843 219.15 168.818 217.683C168.792 216.217 169.237 214.975 170.153 213.959C171.135 212.942 172.36 212.42 173.826 212.395L187.924 212.149L187.68 198.151C187.654 196.684 188.132 195.443 189.115 194.425C190.097 193.408 191.322 192.887 192.788 192.861C194.254 192.835 195.463 193.314 196.414 194.298C197.431 195.28 197.952 196.505 197.978 197.971L198.222 211.969L212.32 211.723C213.787 211.697 215.028 212.176 216.046 213.158C217.063 214.141 217.585 215.365 217.61 216.831C217.636 218.298 217.157 219.54 216.175 220.557C215.193 221.574 213.968 222.096 212.502 222.121L198.404 222.367L198.648 236.365Z" fill="white"/>
<path d="M1365.3 685.731C1365.35 688.664 1364.39 691.147 1362.43 693.182C1360.59 695.214 1358.21 696.256 1355.28 696.307C1352.35 696.358 1349.86 695.401 1347.83 693.437C1345.79 691.472 1344.75 689.023 1344.7 686.09L1344.21 658.094L1316.02 658.587C1313.08 658.638 1310.6 657.681 1308.56 655.716C1306.66 653.749 1305.69 651.299 1305.64 648.366C1305.58 645.433 1306.47 642.951 1308.31 640.918C1310.27 638.884 1312.72 637.841 1315.65 637.79L1343.85 637.298L1343.36 609.302C1343.31 606.369 1344.26 603.885 1346.23 601.851C1348.19 599.816 1350.64 598.773 1353.58 598.722C1356.51 598.671 1358.93 599.629 1360.83 601.596C1362.86 603.561 1363.9 606.009 1363.96 608.942L1364.44 636.938L1392.64 636.446C1395.57 636.395 1398.06 637.351 1400.09 639.316C1402.13 641.281 1403.17 643.73 1403.22 646.663C1403.27 649.596 1402.31 652.079 1400.35 654.114C1398.39 656.149 1395.94 657.192 1393 657.243L1364.81 657.735L1365.3 685.731Z" fill="white"/>
<circle cx="126" cy="638" r="168" stroke="white" stroke-width="50"/>
<circle cx="1450" cy="369" r="94" stroke="white" stroke-width="50"/>
<circle cx="1268" cy="145" r="26" stroke="white" stroke-width="20"/>
<circle cx="1329.5" cy="498.5" r="17.5" fill="white"/>
<circle cx="1325.5" cy="81.5" r="9.5" fill="white"/>
<circle cx="153" cy="381" r="22" fill="white"/>
<circle cx="284" cy="118" r="35" fill="white"/>
<circle cx="28" r="153" stroke="white" stroke-width="80"/>
</g>
</svg>
