<svg width="48" height="48" viewBox="0 0 48 48" fill="none" xmlns="http://www.w3.org/2000/svg">
<path d="M43.7948 20.088C44.8188 20.088 45.6828 20.44 46.3868 21.144C47.0908 21.784 47.4428 22.616 47.4428 23.64C47.4428 24.664 47.0908 25.528 46.3868 26.232C45.6828 26.872 44.8188 27.192 43.7948 27.192H27.5708V43.416C27.5708 44.44 27.2188 45.304 26.5148 46.008C25.8748 46.712 25.0428 47.064 24.0188 47.064C22.9948 47.064 22.1308 46.712 21.4268 46.008C20.7868 45.304 20.4668 44.44 20.4668 43.416V27.192H4.24275C3.21875 27.192 2.35475 26.84 1.65075 26.136C0.94675 25.432 0.59475 24.6 0.59475 23.64C0.59475 22.616 0.94675 21.784 1.65075 21.144C2.35475 20.44 3.21875 20.088 4.24275 20.088H20.4668V3.864C20.4668 2.84 20.7868 1.976 21.4268 1.272C22.1308 0.567997 22.9948 0.215996 24.0188 0.215996C25.0428 0.215996 25.8748 0.567997 26.5148 1.272C27.2188 1.976 27.5708 2.84 27.5708 3.864V20.088H43.7948Z" fill="#FF9E46"/>
</svg>
