<svg width="24" height="30" viewBox="0 0 24 30" fill="none" xmlns="http://www.w3.org/2000/svg">
<path d="M10.9678 17.28V19.28H15.4478C16.0611 19.28 16.5811 19.48 17.0078 19.88C17.4345 20.2533 17.6478 20.7467 17.6478 21.36C17.6478 22 17.4345 22.52 17.0078 22.92C16.5811 23.2933 16.0611 23.48 15.4478 23.48H10.9678V25.6C10.9678 26.7733 10.6211 27.68 9.92781 28.32C9.26115 28.9333 8.42115 29.24 7.40781 29.24C6.42115 29.24 5.58115 28.9333 4.88781 28.32C4.22115 27.68 3.88781 26.7733 3.88781 25.6V23.48H2.44781C1.83448 23.48 1.30115 23.2933 0.847813 22.92C0.421146 22.52 0.207813 22 0.207813 21.36C0.207813 20.7467 0.421146 20.2533 0.847813 19.88C1.30115 19.48 1.83448 19.28 2.44781 19.28H3.88781V17.28H2.44781C1.83448 17.28 1.30115 17.0933 0.847813 16.72C0.421146 16.32 0.207813 15.8133 0.207813 15.2C0.207813 14.56 0.421146 14.0533 0.847813 13.68C1.30115 13.28 1.83448 13.08 2.44781 13.08H3.88781V4.2C3.88781 3.10667 4.18115 2.26667 4.76781 1.68C5.35448 1.09333 6.19448 0.799998 7.28781 0.799998H13.8878C15.9411 0.799998 17.7011 1.16 19.1678 1.88C20.6611 2.6 21.7811 3.57333 22.5278 4.8C23.2745 6 23.6478 7.34667 23.6478 8.84C23.6478 11.5333 22.8078 13.6133 21.1278 15.08C19.4745 16.5467 17.0611 17.28 13.8878 17.28H10.9678ZM10.8478 13.08H12.0478C13.7278 13.08 14.9678 12.8267 15.7678 12.32C16.5678 11.8133 16.9678 10.9867 16.9678 9.84C16.9678 8.48 16.6078 7.52 15.8878 6.96C15.1678 6.37333 14.0478 6.08 12.5278 6.08H10.8478V13.08Z" fill="#FF9E46"/>
</svg>
