<svg width="25" height="25" viewBox="0 0 25 25" fill="none" xmlns="http://www.w3.org/2000/svg">
<path fill-rule="evenodd" clip-rule="evenodd" d="M10.5625 0.875C15.9128 0.875 20.25 5.21224 20.25 10.5625C20.25 12.537 19.6593 14.3736 18.6449 15.9051L23.5575 20.8175C24.3142 21.5741 24.3142 22.8009 23.5575 23.5575C22.8591 24.256 21.7601 24.3097 21 23.7187L20.8175 23.5575L15.9051 18.6449C14.3736 19.6593 12.537 20.25 10.5625 20.25C5.21224 20.25 0.875 15.9128 0.875 10.5625C0.875 5.21224 5.21224 0.875 10.5625 0.875ZM10.5625 4.75C7.35234 4.75 4.75 7.35234 4.75 10.5625C4.75 13.7727 7.35234 16.375 10.5625 16.375C13.7727 16.375 16.375 13.7727 16.375 10.5625C16.375 7.35234 13.7727 4.75 10.5625 4.75Z" fill="#FF9E46"/>
</svg>
