<svg width="24" height="24" viewBox="0 0 24 24" fill="none" xmlns="http://www.w3.org/2000/svg">
<path fill-rule="evenodd" clip-rule="evenodd" d="M5.43718 17.625C6.99042 17.625 8.24957 18.8842 8.24957 20.4375C8.24957 21.9908 6.99042 23.25 5.43718 23.25C3.88394 23.25 2.62479 21.9908 2.62479 20.4375C2.62479 18.8842 3.88394 17.625 5.43718 17.625ZM18.5617 17.625C20.1149 17.625 21.3741 18.8842 21.3741 20.4375C21.3741 21.9908 20.1149 23.25 18.5617 23.25C17.0084 23.25 15.7493 21.9908 15.7493 20.4375C15.7493 18.8842 17.0084 17.625 18.5617 17.625ZM2.62493 0.75H6.37479C7.33632 0.75 8.12879 1.47383 8.2371 2.40634L8.24971 2.625V4.5H21.3739C22.5463 4.5 23.4119 5.55617 23.2244 6.67903L23.1767 6.8901L20.2039 13.5453C19.5454 15.8504 17.5044 17.4721 15.136 17.6148L14.7956 17.625H10.1246C7.12911 17.625 4.68049 15.2833 4.50941 12.3305L4.49986 12V4.5H2.62493C1.58943 4.5 0.75 3.66053 0.75 2.625C0.75 1.66343 1.4738 0.870924 2.40627 0.762614L2.62493 0.75H6.37479H2.62493Z" fill="#FF9E46"/>
</svg>
