<svg width="28" height="24" viewBox="0 0 28 24" fill="none" xmlns="http://www.w3.org/2000/svg">
<path fill-rule="evenodd" clip-rule="evenodd" d="M17.75 0C18.7855 0 19.625 0.89543 19.625 2V4H25.25C26.2855 4 27.125 4.89543 27.125 6C27.125 7.10457 26.2855 8 25.25 8H23.375V18C23.375 21.3137 21.2763 24 18.6875 24H9.3125C6.72367 24 4.625 21.3137 4.625 18V8H2.75C1.71447 8 0.875 7.10457 0.875 6C0.875 4.89543 1.71447 4 2.75 4H8.375V2C8.375 0.89543 9.21447 0 10.25 0H17.75ZM10.25 8C9.28843 8 8.49592 8.77208 8.38761 9.76676L8.375 10V18C8.375 19.1046 9.21447 20 10.25 20C11.2116 20 12.0041 19.2279 12.1124 18.2332L12.125 18V10C12.125 8.89543 11.2855 8 10.25 8ZM17.75 8C16.7884 8 15.9959 8.77208 15.8876 9.76676L15.875 10V18C15.875 19.1046 16.7145 20 17.75 20C18.7116 20 19.5041 19.2279 19.6124 18.2332L19.625 18V10C19.625 8.89543 18.7855 8 17.75 8Z" fill="#FF9E46"/>
</svg>
